PathFileType	4	(X/Y/Z)	C:/Users/opensim2020/Desktop/walking_exp_matlab/subject06_walking17_straight_04.trc	
DataRate	CameraRate	NumFrames	NumMarkers	Units	OrigDataRate	OrigDataStartFrame	OrigNumFrames	
100.00	100.00	4	45	mm	100.00	4484	318	
Frame#	Time	LFHD			RFHD			LBHD			RBHD			C7			T10			CLAV			STRN			RBAK			LSHO			LUPA			LELB			LFRM			LWRA			LWRB			LFIN			RSHO			RUPA			RELB			RFRM			RWRA			RWRB			RFIN			LASI			RASI			LPSI			RPSI			LTHI			LKNE			LTIB			LANK			LHEE			LTOE			RTHI			RKNE			RTIB			RANK			RHEE			RTOE			*39			*40			*41			*42			*43			*44			
		X1	Y1	Z1	X2	Y2	Z2	X3	Y3	Z3	X4	Y4	Z4	X5	Y5	Z5	X6	Y6	Z6	X7	Y7	Z7	X8	Y8	Z8	X9	Y9	Z9	X10	Y10	Z10	X11	Y11	Z11	X12	Y12	Z12	X13	Y13	Z13	X14	Y14	Z14	X15	Y15	Z15	X16	Y16	Z16	X17	Y17	Z17	X18	Y18	Z18	X19	Y19	Z19	X20	Y20	Z20	X21	Y21	Z21	X22	Y22	Z22	X23	Y23	Z23	X24	Y24	Z24	X25	Y25	Z25	X26	Y26	Z26	X27	Y27	Z27	X28	Y28	Z28	X29	Y29	Z29	X30	Y30	Z30	X31	Y31	Z31	X32	Y32	Z32	X33	Y33	Z33	X34	Y34	Z34	X35	Y35	Z35	X36	Y36	Z36	X37	Y37	Z37	X38	Y38	Z38	X39	Y39	Z39	X40	Y40	Z40	X41	Y41	Z41	X42	Y42	Z42	X43	Y43	Z43	X44	Y44	Z44	X45	Y45	Z45	

199	1.980	1535.77344	60.77032	1666.90186	1404.18103	64.80620	1653.28662	1541.26917	191.71800	1606.21204	1412.07092	194.89323	1598.31567	1482.50891	187.83945	1448.82654	1471.79053	212.39708	1118.39722	1481.17236	75.77977	1375.29504	1483.23315	30.31033	1201.35327	1398.23450	253.87679	1277.66357	1643.67224	133.32005	1402.55823	1711.96594	155.67311	1200.56360	1717.04602	172.60211	1088.55969	1724.98694	162.76718	936.68860	1660.82141	131.57291	819.70337	1715.04358	178.32303	818.32275	1699.06641	150.51758	731.88837	1320.25586	119.54705	1408.96228	1228.24548	152.49107	1211.82922	1216.59753	141.13408	1089.86194	1200.26636	117.38168	971.84521	1235.49365	48.03430	838.27136	1192.83704	100.50584	835.38580	1193.47375	58.38561	762.08044	1570.95923	18.23175	968.14459	1352.00500	39.13814	965.81946	1556.50928	180.06892	989.92664	1389.00427	189.40404	984.81067	1630.73621	59.96915	653.63892	1604.53821	52.01246	489.81259	1582.53491	62.57747	233.91127	1527.36987	48.46972	66.84748	1480.16772	86.21672	53.46213	1522.79724	-99.37782	41.76486	1299.16138	96.19822	623.77148	1311.82263	89.92406	496.56995	1325.00293	280.95978	316.98132	1374.18103	418.60922	193.80415	1423.59155	458.78189	201.79393	1370.63477	339.79776	59.47888	1478.98889	164.85698	1699.17041															 
200	1.990	1536.53955	53.96285	1667.56323	1404.96106	58.08868	1653.92212	1542.13391	184.87279	1606.69531	1412.97620	188.04457	1598.81177	1483.48071	180.92696	1449.48706	1473.01648	205.61340	1119.08557	1481.98804	68.85084	1375.90015	1484.05969	23.38888	1201.88525	1399.68689	247.22166	1278.35693	1644.66272	125.78465	1403.32410	1713.67773	146.09492	1201.05127	1719.50916	161.49452	1088.93591	1728.29346	149.85028	937.28394	1665.23926	116.95469	820.40662	1719.09668	164.13033	818.69867	1703.80518	135.25922	732.51398	1321.17615	112.95192	1409.45984	1229.54993	146.37296	1212.12903	1217.64270	134.73520	1090.34546	1201.10876	111.26038	972.26868	1236.20618	42.50080	838.40649	1193.57300	94.70235	835.72565	1194.02441	52.72092	762.42175	1571.69434	11.68089	968.59546	1352.59741	32.75649	966.49908	1557.35095	173.13934	990.51349	1389.73889	182.94414	985.33020	1631.21899	54.57926	653.94830	1604.94080	47.74260	490.09262	1582.95825	60.56461	234.10400	1527.47559	48.24043	66.91788	1480.56860	85.93541	53.41887	1522.65625	-99.68234	41.49187	1300.01599	85.77370	624.33496	1312.89636	77.35097	497.32962	1325.18774	268.37000	318.82635	1373.12024	406.81366	195.92647	1422.20825	447.73514	203.30191	1368.94666	326.49316	62.84232	1479.86072	158.14513	1699.68201															 
201	2.000	1537.25793	47.21354	1668.26794	1405.70081	51.41913	1654.58984	1543.03174	178.07097	1607.16455	1413.80334	181.18010	1599.27783	1484.65234	174.09842	1450.19690	1474.15186	199.00439	1119.85095	1482.77271	62.08623	1376.48572	1484.85608	16.77302	1202.39038	1401.05042	240.73436	1279.05225	1645.56665	118.31282	1403.99097	1715.34985	136.47725	1201.55151	1722.00916	150.45407	1089.33667	1731.63525	136.80360	937.94391	1668.73499	103.43623	820.91846	1723.26086	149.69308	819.05426	1708.61938	119.71565	733.33661	1322.07825	106.49704	1409.97241	1230.50537	139.90181	1212.71118	1218.70068	128.52370	1090.84143	1202.07056	105.21155	972.73993	1236.84229	36.62363	838.76660	1194.12610	89.28960	836.15686	1194.50525	47.10094	762.85181	1572.49939	5.29849	968.98059	1353.21570	26.39857	967.17395	1558.00452	166.81082	991.17047	1390.28992	176.44119	985.87811	1631.66260	49.57399	654.27991	1605.25867	43.75992	490.38571	1583.16284	58.98410	234.37819	1527.56250	48.05203	67.03707	1480.80847	86.10810	53.80851	1522.68042	-99.76827	41.22643	1300.90015	75.49907	625.03741	1314.00964	65.14429	498.20969	1324.98254	255.91930	320.30539	1372.03015	394.53275	197.10764	1420.94824	436.05743	203.52318	1367.32129	311.90521	65.73073	1480.67065	151.47363	1700.22559															 
202	2.010	1537.94385	40.36459	1668.95349	1406.37195	44.76829	1655.22046	1543.88037	171.28761	1607.85901	1414.63196	174.62291	1599.86597	1485.74072	167.43576	1450.90515	1475.17847	192.56490	1120.61035	1483.56897	55.41531	1377.16919	1485.64624	10.27302	1202.91724	1402.41504	234.34399	1279.80591	1646.51038	110.81539	1404.71802	1717.01428	126.79369	1202.04834	1724.44800	139.22041	1089.80518	1734.88428	123.67432	938.66632	1672.66296	89.16615	821.66168	1727.13782	135.23506	819.61383	1713.24011	104.52769	733.97736	1322.97754	100.21160	1410.57690	1231.62463	133.80200	1213.28699	1219.75281	122.46642	1091.38293	1203.01819	99.39732	973.26990	1237.43567	31.08671	839.07916	1194.88940	83.72440	836.70282	1194.93701	41.58163	763.41687	1573.37878	-0.76527	969.38800	1353.85718	19.90480	967.96454	1558.48047	160.63289	991.81531	1390.74353	169.92300	986.51105	1631.78857	45.02194	654.78772	1605.56274	40.06796	490.76028	1583.28479	57.90533	234.71245	1527.54944	48.00246	67.17606	1480.86072	86.05296	53.97158	1522.66882	-99.99268	41.09986	1301.79553	65.30071	625.87939	1315.15845	53.23652	499.27814	1324.58899	243.42146	321.24997	1370.96790	381.53125	197.31029	1419.62561	423.76624	202.72173	1365.67554	296.49030	68.07092	1481.46423	144.80263	1700.82654															 
